<?xml version="1.0" encoding="utf-8"?>
<!-- Generator: Adobe Illustrator 24.1.2, SVG Export Plug-In . SVG Version: 6.00 Build 0)  -->
<svg version="1.1" id="Layer_1" xmlns="http://www.w3.org/2000/svg" xmlns:xlink="http://www.w3.org/1999/xlink" x="0px" y="0px"
	 viewBox="0 0 44 44" style="enable-background:new 0 0 44 44;" xml:space="preserve">
<style type="text/css">
	.st0{fill:url(#SVGID_3_);}
	.st1{fill:url(#SVGID_4_);}
	.st2{fill:url(#SVGID_5_);}
	.st3{opacity:0.18;}
	.st4{fill:url(#SVGID_6_);}
	.st5{fill:url(#SVGID_7_);}
	.st6{fill:url(#SVGID_8_);}
</style>
<g>
	<g>
		<defs>
			<path id="SVGID_1_" d="M38.7,34.7c0,0,2,0,4-0.6c0-0.3,0-0.7,0-0.7H39L39,10c0,0,0-0.9-1-1.1H6.2c0,0-1,0.1-1,1.1s0,23.2,0,23.2
				H1.1v0.7c0,0,2.3,0.6,4.2,0.6S38.7,34.7,38.7,34.7z"/>
		</defs>
		<clipPath id="SVGID_2_">
			<use xlink:href="#SVGID_1_"  style="overflow:visible;"/>
		</clipPath>
		<g style="clip-path:url(#SVGID_2_);">
			
				<image style="overflow:visible;" width="5000" height="3986" id="_x39_1374_xA0_Image_2_" xlink:href="4E2C7DE0.jpg"  transform="matrix(1.040160e-02 0 0 1.129107e-02 -4.0464 -0.355)">
			</image>
		</g>
	</g>
	<g>
		<linearGradient id="SVGID_3_" gradientUnits="userSpaceOnUse" x1="11.3064" y1="19.1361" x2="18.5504" y2="19.1361">
			<stop  offset="0.1558" style="stop-color:#000000"/>
			<stop  offset="0.8065" style="stop-color:#3E3E3F"/>
			<stop  offset="1" style="stop-color:#FFFFFF"/>
		</linearGradient>
		<path class="st0" d="M11.3,15.5V15h2.8v0.6H11.3z M11.3,16.6v-0.6h3.3v0.6H11.3z M11.3,22.2v-0.6h2.8v0.6H11.3z M11.3,23.3v-0.6
			h2.8v0.6H11.3z M11.9,17.7v-0.6h3.3v0.6H11.9z M11.9,18.9v-0.6h3.9v0.6H11.9z M11.9,20v-0.6h1.7V20H11.9z M11.9,21.1v-0.6h1.7v0.6
			H11.9z M14.1,20v-0.6H18V20H14.1z M14.6,21.1v-0.6H18v0.6H14.6z M15.2,22.2v-0.6h3.3v0.6H15.2z M15.8,15.5V15h2.8v0.6H15.8z
			 M15.8,16.6v-0.6h2.8v0.6H15.8z M15.8,23.3v-0.6h2.8v0.6H15.8z M16.3,17.7v-0.6H18v0.6H16.3z M16.3,18.9v-0.6H18v0.6H16.3z"/>
		<linearGradient id="SVGID_4_" gradientUnits="userSpaceOnUse" x1="20.222" y1="19.1361" x2="25.7943" y2="19.1361">
			<stop  offset="0.1558" style="stop-color:#000000"/>
			<stop  offset="0.8065" style="stop-color:#3E3E3F"/>
			<stop  offset="1" style="stop-color:#FFFFFF"/>
		</linearGradient>
		<path class="st1" d="M20.2,16.6v-0.6h5.6v0.6H20.2z M20.2,17.7v-0.6h1.7v0.6H20.2z M20.2,18.9v-0.6h1.7v0.6H20.2z M20.2,20v-0.6
			h1.7V20H20.2z M20.2,21.1v-0.6h1.7v0.6H20.2z M20.2,22.2v-0.6h5.6v0.6H20.2z M20.8,15.5V15h5v0.6H20.8z M20.8,23.3v-0.6h4.5v0.6
			H20.8z M23.6,20v-0.6h2.2V20H23.6z M24.1,21.1v-0.6h1.7v0.6H24.1z"/>
		<linearGradient id="SVGID_5_" gradientUnits="userSpaceOnUse" x1="27.466" y1="19.1361" x2="33.0383" y2="19.1361">
			<stop  offset="0.1558" style="stop-color:#000000"/>
			<stop  offset="0.8065" style="stop-color:#3E3E3F"/>
			<stop  offset="1" style="stop-color:#FFFFFF"/>
		</linearGradient>
		<path class="st2" d="M27.5,16.6v-0.6H33v0.6H27.5z M27.5,17.7v-0.6h1.7v0.6H27.5z M27.5,22.2v-0.6H33v0.6H27.5z M27.5,23.3v-0.6h5
			v0.6H27.5z M28,15.5V15h5v0.6H28z M28.6,18.9v-0.6h2.2v0.6H28.6z M29.7,20v-0.6h2.2V20H29.7z M31.4,21.1v-0.6H33v0.6H31.4z"/>
	</g>
	<g class="st3">
		<linearGradient id="SVGID_6_" gradientUnits="userSpaceOnUse" x1="11.306" y1="26.9366" x2="18.55" y2="26.9366">
			<stop  offset="0.3668" style="stop-color:#000000"/>
			<stop  offset="1" style="stop-color:#FFFFFF"/>
		</linearGradient>
		<path class="st4" d="M14.1,30.6v0.6h-2.8v-0.6H14.1z M14.6,29.4V30h-3.3v-0.6H14.6z M14.1,23.9v0.6h-2.8v-0.6H14.1z M14.1,22.8
			v0.6h-2.8v-0.6H14.1z M15.2,28.3v0.6h-3.3v-0.6H15.2z M15.8,27.2v0.6h-3.9v-0.6H15.8z M13.5,26.1v0.6h-1.7v-0.6H13.5z M13.5,25
			v0.6h-1.7V25H13.5z M18,26.1v0.6h-3.9v-0.6H18z M18,25v0.6h-3.3V25H18z M18.5,23.9v0.6h-3.3v-0.6H18.5z M18.5,30.6v0.6h-2.8v-0.6
			H18.5z M18.5,29.4V30h-2.8v-0.6H18.5z M18.5,22.8v0.6h-2.8v-0.6H18.5z M18,28.3v0.6h-1.7v-0.6H18z M18,27.2v0.6h-1.7v-0.6H18z"/>
		<linearGradient id="SVGID_7_" gradientUnits="userSpaceOnUse" x1="20.2217" y1="26.9366" x2="25.7947" y2="26.9366">
			<stop  offset="0.3668" style="stop-color:#000000"/>
			<stop  offset="1" style="stop-color:#FFFFFF"/>
		</linearGradient>
		<path class="st5" d="M25.8,29.4V30h-5.6v-0.6H25.8z M21.9,28.3v0.6h-1.7v-0.6H21.9z M21.9,27.2v0.6h-1.7v-0.6H21.9z M21.9,26.1
			v0.6h-1.7v-0.6H21.9z M21.9,25v0.6h-1.7V25H21.9z M25.8,23.9v0.6h-5.6v-0.6H25.8z M25.8,30.6v0.6h-5v-0.6H25.8z M25.2,22.8v0.6
			h-4.5v-0.6H25.2z M25.8,26.1v0.6h-2.2v-0.6H25.8z M25.8,25v0.6h-1.7V25H25.8z"/>
		<linearGradient id="SVGID_8_" gradientUnits="userSpaceOnUse" x1="27.4664" y1="26.9366" x2="33.0386" y2="26.9366">
			<stop  offset="0.3668" style="stop-color:#000000"/>
			<stop  offset="1" style="stop-color:#FFFFFF"/>
		</linearGradient>
		<path class="st6" d="M33,29.4V30h-5.6v-0.6H33z M29.1,28.3v0.6h-1.7v-0.6H29.1z M33,23.9v0.6h-5.6v-0.6H33z M32.5,22.8v0.6h-5
			v-0.6H32.5z M33,30.6v0.6h-5v-0.6H33z M30.8,27.2v0.6h-2.2v-0.6H30.8z M31.9,26.1v0.6h-2.2v-0.6H31.9z M33,25v0.6h-1.7V25H33z"/>
	</g>
</g>
</svg>
