<?xml version="1.0" encoding="utf-8"?>
<!-- Generator: Adobe Illustrator 24.1.2, SVG Export Plug-In . SVG Version: 6.00 Build 0)  -->
<svg version="1.1" id="Layer_1" xmlns="http://www.w3.org/2000/svg" xmlns:xlink="http://www.w3.org/1999/xlink" x="0px" y="0px"
	 viewBox="0 0 150 130.1" style="enable-background:new 0 0 150 130.1;" xml:space="preserve">
<style type="text/css">
	.st0{fill:url(#SVGID_1_);}
	.st1{fill:url(#SVGID_2_);}
	.st2{fill:url(#SVGID_3_);}
	.st3{opacity:0.18;}
	.st4{fill:url(#SVGID_4_);}
	.st5{fill:url(#SVGID_5_);}
	.st6{fill:url(#SVGID_6_);}
</style>
<image style="overflow:visible;" width="5000" height="3986" id="_x39_1374_xA0_Image_2_" xlink:href="6B452493.jpg"  transform="matrix(2.364723e-02 0 0 2.566937e-02 13.3884 22.5337)">
</image>
<g>
	<linearGradient id="SVGID_1_" gradientUnits="userSpaceOnUse" x1="48.2919" y1="66.8452" x2="64.7605" y2="66.8452">
		<stop  offset="0.1558" style="stop-color:#000000"/>
		<stop  offset="0.8065" style="stop-color:#3E3E3F"/>
		<stop  offset="1" style="stop-color:#FFFFFF"/>
	</linearGradient>
	<path class="st0" d="M48.3,58.6v-1.3h6.3v1.3H48.3z M48.3,61.1v-1.3h7.6v1.3H48.3z M48.3,73.8v-1.3h6.3v1.3H48.3z M48.3,76.3v-1.3
		h6.3v1.3H48.3z M49.6,63.7v-1.3h7.6v1.3H49.6z M49.6,66.2v-1.3h8.9v1.3H49.6z M49.6,68.7v-1.3h3.8v1.3H49.6z M49.6,71.3V70h3.8v1.3
		H49.6z M54.6,68.7v-1.3h8.9v1.3H54.6z M55.9,71.3V70h7.6v1.3H55.9z M57.2,73.8v-1.3h7.6v1.3H57.2z M58.4,58.6v-1.3h6.3v1.3H58.4z
		 M58.4,61.1v-1.3h6.3v1.3H58.4z M58.4,76.3v-1.3h6.3v1.3H58.4z M59.7,63.7v-1.3h3.8v1.3H59.7z M59.7,66.2v-1.3h3.8v1.3H59.7z"/>
	<linearGradient id="SVGID_2_" gradientUnits="userSpaceOnUse" x1="68.5609" y1="66.8452" x2="81.2291" y2="66.8452">
		<stop  offset="0.1558" style="stop-color:#000000"/>
		<stop  offset="0.8065" style="stop-color:#3E3E3F"/>
		<stop  offset="1" style="stop-color:#FFFFFF"/>
	</linearGradient>
	<path class="st1" d="M68.6,61.1v-1.3h12.7v1.3H68.6z M68.6,63.7v-1.3h3.8v1.3H68.6z M68.6,66.2v-1.3h3.8v1.3H68.6z M68.6,68.7v-1.3
		h3.8v1.3H68.6z M68.6,71.3V70h3.8v1.3H68.6z M68.6,73.8v-1.3h12.7v1.3H68.6z M69.8,58.6v-1.3h11.4v1.3H69.8z M69.8,76.3v-1.3H80
		v1.3H69.8z M76.2,68.7v-1.3h5.1v1.3H76.2z M77.4,71.3V70h3.8v1.3H77.4z"/>
	<linearGradient id="SVGID_3_" gradientUnits="userSpaceOnUse" x1="85.0295" y1="66.8452" x2="97.6977" y2="66.8452">
		<stop  offset="0.1558" style="stop-color:#000000"/>
		<stop  offset="0.8065" style="stop-color:#3E3E3F"/>
		<stop  offset="1" style="stop-color:#FFFFFF"/>
	</linearGradient>
	<path class="st2" d="M85,61.1v-1.3h12.7v1.3H85z M85,63.7v-1.3h3.8v1.3H85z M85,73.8v-1.3h12.7v1.3H85z M85,76.3v-1.3h11.4v1.3H85z
		 M86.3,58.6v-1.3h11.4v1.3H86.3z M87.6,66.2v-1.3h5.1v1.3H87.6z M90.1,68.7v-1.3h5.1v1.3H90.1z M93.9,71.3V70h3.8v1.3H93.9z"/>
</g>
<g class="st3">
	<linearGradient id="SVGID_4_" gradientUnits="userSpaceOnUse" x1="48.291" y1="84.579" x2="64.7596" y2="84.579">
		<stop  offset="0.3668" style="stop-color:#000000"/>
		<stop  offset="1" style="stop-color:#FFFFFF"/>
	</linearGradient>
	<path class="st4" d="M54.6,92.8v1.3h-6.3v-1.3H54.6z M55.9,90.3v1.3h-7.6v-1.3H55.9z M54.6,77.6v1.3h-6.3v-1.3H54.6z M54.6,75.1
		v1.3h-6.3v-1.3H54.6z M57.2,87.7V89h-7.6v-1.3H57.2z M58.4,85.2v1.3h-8.9v-1.3H58.4z M53.4,82.7v1.3h-3.8v-1.3H53.4z M53.4,80.1
		v1.3h-3.8v-1.3H53.4z M63.5,82.7v1.3h-8.9v-1.3H63.5z M63.5,80.1v1.3h-7.6v-1.3H63.5z M64.8,77.6v1.3h-7.6v-1.3H64.8z M64.8,92.8
		v1.3h-6.3v-1.3H64.8z M64.8,90.3v1.3h-6.3v-1.3H64.8z M64.8,75.1v1.3h-6.3v-1.3H64.8z M63.5,87.7V89h-3.8v-1.3H63.5z M63.5,85.2
		v1.3h-3.8v-1.3H63.5z"/>
	<linearGradient id="SVGID_5_" gradientUnits="userSpaceOnUse" x1="68.5601" y1="84.579" x2="81.2299" y2="84.579">
		<stop  offset="0.3668" style="stop-color:#000000"/>
		<stop  offset="1" style="stop-color:#FFFFFF"/>
	</linearGradient>
	<path class="st5" d="M81.2,90.3v1.3H68.6v-1.3H81.2z M72.4,87.7V89h-3.8v-1.3H72.4z M72.4,85.2v1.3h-3.8v-1.3H72.4z M72.4,82.7v1.3
		h-3.8v-1.3H72.4z M72.4,80.1v1.3h-3.8v-1.3H72.4z M81.2,77.6v1.3H68.6v-1.3H81.2z M81.2,92.8v1.3H69.8v-1.3H81.2z M80,75.1v1.3
		H69.8v-1.3H80z M81.2,82.7v1.3h-5.1v-1.3H81.2z M81.2,80.1v1.3h-3.8v-1.3H81.2z"/>
	<linearGradient id="SVGID_6_" gradientUnits="userSpaceOnUse" x1="85.0303" y1="84.579" x2="97.6985" y2="84.579">
		<stop  offset="0.3668" style="stop-color:#000000"/>
		<stop  offset="1" style="stop-color:#FFFFFF"/>
	</linearGradient>
	<path class="st6" d="M97.7,90.3v1.3H85v-1.3H97.7z M88.8,87.7V89H85v-1.3H88.8z M97.7,77.6v1.3H85v-1.3H97.7z M96.4,75.1v1.3H85
		v-1.3H96.4z M97.7,92.8v1.3H86.3v-1.3H97.7z M92.6,85.2v1.3h-5.1v-1.3H92.6z M95.2,82.7v1.3h-5.1v-1.3H95.2z M97.7,80.1v1.3h-3.8
		v-1.3H97.7z"/>
</g>
</svg>
