<?xml version="1.0" encoding="utf-8"?>
<!-- Generator: Adobe Illustrator 24.1.2, SVG Export Plug-In . SVG Version: 6.00 Build 0)  -->
<svg version="1.1" id="Layer_1" xmlns="http://www.w3.org/2000/svg" xmlns:xlink="http://www.w3.org/1999/xlink" x="0px" y="0px"
	 viewBox="0 0 35 35" style="enable-background:new 0 0 35 35;" xml:space="preserve">
<style type="text/css">
	.st0{fill:url(#SVGID_1_);}
	.st1{fill:url(#SVGID_2_);}
	.st2{fill:url(#SVGID_3_);}
	.st3{opacity:0.18;}
	.st4{fill:url(#SVGID_4_);}
	.st5{fill:url(#SVGID_5_);}
	.st6{fill:url(#SVGID_6_);}
</style>
<image style="overflow:visible;" width="5000" height="3986" id="_x39_1374_xA0_Image_2_" xlink:href="94181E25.jpg"  transform="matrix(7.000000e-03 0 0 8.762777e-03 0 0)">
</image>
<g>
	<linearGradient id="SVGID_1_" gradientUnits="userSpaceOnUse" x1="10.332" y1="16.8694" x2="15.207" y2="16.8694">
		<stop  offset="0.1558" style="stop-color:#000000"/>
		<stop  offset="0.8065" style="stop-color:#3E3E3F"/>
		<stop  offset="1" style="stop-color:#FFFFFF"/>
	</linearGradient>
	<path class="st0" d="M10.3,14.4v-0.4h1.9v0.4H10.3z M10.3,15.2v-0.4h2.3v0.4H10.3z M10.3,18.9v-0.4h1.9v0.4H10.3z M10.3,19.7v-0.4
		h1.9v0.4H10.3z M10.7,15.9v-0.4H13v0.4H10.7z M10.7,16.7v-0.4h2.6v0.4H10.7z M10.7,17.4v-0.4h1.1v0.4H10.7z M10.7,18.2v-0.4h1.1
		v0.4H10.7z M12.2,17.4v-0.4h2.6v0.4H12.2z M12.6,18.2v-0.4h2.3v0.4H12.6z M13,18.9v-0.4h2.3v0.4H13z M13.3,14.4v-0.4h1.9v0.4H13.3z
		 M13.3,15.2v-0.4h1.9v0.4H13.3z M13.3,19.7v-0.4h1.9v0.4H13.3z M13.7,15.9v-0.4h1.1v0.4H13.7z M13.7,16.7v-0.4h1.1v0.4H13.7z"/>
	<linearGradient id="SVGID_2_" gradientUnits="userSpaceOnUse" x1="16.332" y1="16.8694" x2="20.082" y2="16.8694">
		<stop  offset="0.1558" style="stop-color:#000000"/>
		<stop  offset="0.8065" style="stop-color:#3E3E3F"/>
		<stop  offset="1" style="stop-color:#FFFFFF"/>
	</linearGradient>
	<path class="st1" d="M16.3,15.2v-0.4h3.8v0.4H16.3z M16.3,15.9v-0.4h1.1v0.4H16.3z M16.3,16.7v-0.4h1.1v0.4H16.3z M16.3,17.4v-0.4
		h1.1v0.4H16.3z M16.3,18.2v-0.4h1.1v0.4H16.3z M16.3,18.9v-0.4h3.8v0.4H16.3z M16.7,14.4v-0.4h3.4v0.4H16.7z M16.7,19.7v-0.4h3v0.4
		H16.7z M18.6,17.4v-0.4h1.5v0.4H18.6z M19,18.2v-0.4h1.1v0.4H19z"/>
	<linearGradient id="SVGID_3_" gradientUnits="userSpaceOnUse" x1="21.207" y1="16.8694" x2="24.957" y2="16.8694">
		<stop  offset="0.1558" style="stop-color:#000000"/>
		<stop  offset="0.8065" style="stop-color:#3E3E3F"/>
		<stop  offset="1" style="stop-color:#FFFFFF"/>
	</linearGradient>
	<path class="st2" d="M21.2,15.2v-0.4H25v0.4H21.2z M21.2,15.9v-0.4h1.1v0.4H21.2z M21.2,18.9v-0.4H25v0.4H21.2z M21.2,19.7v-0.4
		h3.4v0.4H21.2z M21.6,14.4v-0.4H25v0.4H21.6z M22,16.7v-0.4h1.5v0.4H22z M22.7,17.4v-0.4h1.5v0.4H22.7z M23.8,18.2v-0.4H25v0.4
		H23.8z"/>
</g>
<g class="st3">
	<linearGradient id="SVGID_4_" gradientUnits="userSpaceOnUse" x1="10.3318" y1="22.1189" x2="15.2068" y2="22.1189">
		<stop  offset="0.3668" style="stop-color:#000000"/>
		<stop  offset="1" style="stop-color:#FFFFFF"/>
	</linearGradient>
	<path class="st4" d="M12.2,24.6v0.4h-1.9v-0.4H12.2z M12.6,23.8v0.4h-2.3v-0.4H12.6z M12.2,20.1v0.4h-1.9v-0.4H12.2z M12.2,19.3
		v0.4h-1.9v-0.4H12.2z M13,23.1v0.4h-2.3v-0.4H13z M13.3,22.3v0.4h-2.6v-0.4H13.3z M11.8,21.6v0.4h-1.1v-0.4H11.8z M11.8,20.8v0.4
		h-1.1v-0.4H11.8z M14.8,21.6v0.4h-2.6v-0.4H14.8z M14.8,20.8v0.4h-2.3v-0.4H14.8z M15.2,20.1v0.4H13v-0.4H15.2z M15.2,24.6v0.4
		h-1.9v-0.4H15.2z M15.2,23.8v0.4h-1.9v-0.4H15.2z M15.2,19.3v0.4h-1.9v-0.4H15.2z M14.8,23.1v0.4h-1.1v-0.4H14.8z M14.8,22.3v0.4
		h-1.1v-0.4H14.8z"/>
	<linearGradient id="SVGID_5_" gradientUnits="userSpaceOnUse" x1="16.3318" y1="22.1189" x2="20.0823" y2="22.1189">
		<stop  offset="0.3668" style="stop-color:#000000"/>
		<stop  offset="1" style="stop-color:#FFFFFF"/>
	</linearGradient>
	<path class="st5" d="M20.1,23.8v0.4h-3.8v-0.4H20.1z M17.5,23.1v0.4h-1.1v-0.4H17.5z M17.5,22.3v0.4h-1.1v-0.4H17.5z M17.5,21.6
		v0.4h-1.1v-0.4H17.5z M17.5,20.8v0.4h-1.1v-0.4H17.5z M20.1,20.1v0.4h-3.8v-0.4H20.1z M20.1,24.6v0.4h-3.4v-0.4H20.1z M19.7,19.3
		v0.4h-3v-0.4H19.7z M20.1,21.6v0.4h-1.5v-0.4H20.1z M20.1,20.8v0.4H19v-0.4H20.1z"/>
	<linearGradient id="SVGID_6_" gradientUnits="userSpaceOnUse" x1="21.2073" y1="22.1189" x2="24.9573" y2="22.1189">
		<stop  offset="0.3668" style="stop-color:#000000"/>
		<stop  offset="1" style="stop-color:#FFFFFF"/>
	</linearGradient>
	<path class="st6" d="M25,23.8v0.4h-3.8v-0.4H25z M22.3,23.1v0.4h-1.1v-0.4H22.3z M25,20.1v0.4h-3.8v-0.4H25z M24.6,19.3v0.4h-3.4
		v-0.4H24.6z M25,24.6v0.4h-3.4v-0.4H25z M23.5,22.3v0.4H22v-0.4H23.5z M24.2,21.6v0.4h-1.5v-0.4H24.2z M25,20.8v0.4h-1.1v-0.4H25z"
		/>
</g>
</svg>
