<?xml version="1.0" encoding="utf-8"?>
<!-- Generator: Adobe Illustrator 24.1.2, SVG Export Plug-In . SVG Version: 6.00 Build 0)  -->
<svg version="1.1" id="Layer_1" xmlns="http://www.w3.org/2000/svg" xmlns:xlink="http://www.w3.org/1999/xlink" x="0px" y="0px"
	 viewBox="0 0 150 130.1" style="enable-background:new 0 0 150 130.1;" xml:space="preserve">
<style type="text/css">
	.st0{fill:url(#SVGID_3_);}
	.st1{fill:url(#SVGID_4_);}
	.st2{fill:url(#SVGID_5_);}
	.st3{opacity:0.18;}
	.st4{fill:url(#SVGID_6_);}
	.st5{fill:url(#SVGID_7_);}
	.st6{fill:url(#SVGID_8_);}
</style>
<g>
	<defs>
		<path id="SVGID_1_" d="M110.7,101.6c0,0,4.5-0.1,9.2-1.4c0-0.6,0-1.6,0-1.6h-8.6l0-53c0,0,0.1-2.1-2.2-2.4H36.7
			c0,0-2.2,0.2-2.2,2.6s0,52.8,0,52.8h-9.4v1.7c0,0,5.3,1.4,9.6,1.3S110.7,101.6,110.7,101.6z"/>
	</defs>
	<clipPath id="SVGID_2_">
		<use xlink:href="#SVGID_1_"  style="overflow:visible;"/>
	</clipPath>
	<g transform="matrix(1 0 0 1 0 0)" style="clip-path:url(#SVGID_2_);">
		
			<image style="overflow:visible;" width="5000" height="3986" id="_x39_1374_xA0_Image_2_" xlink:href="4E2C7DE3.jpg"  transform="matrix(2.364723e-02 0 0 2.566937e-02 13.3884 22.0194)">
		</image>
	</g>
</g>
<g>
	<linearGradient id="SVGID_3_" gradientUnits="userSpaceOnUse" x1="48.2919" y1="66.3309" x2="64.7605" y2="66.3309">
		<stop  offset="0.1558" style="stop-color:#000000"/>
		<stop  offset="0.8065" style="stop-color:#3E3E3F"/>
		<stop  offset="1" style="stop-color:#FFFFFF"/>
	</linearGradient>
	<path class="st0" d="M48.3,58.1v-1.3h6.3v1.3H48.3z M48.3,60.6v-1.3h7.6v1.3H48.3z M48.3,73.3V72h6.3v1.3H48.3z M48.3,75.8v-1.3
		h6.3v1.3H48.3z M49.6,63.2v-1.3h7.6v1.3H49.6z M49.6,65.7v-1.3h8.9v1.3H49.6z M49.6,68.2V67h3.8v1.3H49.6z M49.6,70.8v-1.3h3.8v1.3
		H49.6z M54.6,68.2V67h8.9v1.3H54.6z M55.9,70.8v-1.3h7.6v1.3H55.9z M57.2,73.3V72h7.6v1.3H57.2z M58.4,58.1v-1.3h6.3v1.3H58.4z
		 M58.4,60.6v-1.3h6.3v1.3H58.4z M58.4,75.8v-1.3h6.3v1.3H58.4z M59.7,63.2v-1.3h3.8v1.3H59.7z M59.7,65.7v-1.3h3.8v1.3H59.7z"/>
	<linearGradient id="SVGID_4_" gradientUnits="userSpaceOnUse" x1="68.5609" y1="66.3309" x2="81.2291" y2="66.3309">
		<stop  offset="0.1558" style="stop-color:#000000"/>
		<stop  offset="0.8065" style="stop-color:#3E3E3F"/>
		<stop  offset="1" style="stop-color:#FFFFFF"/>
	</linearGradient>
	<path class="st1" d="M68.6,60.6v-1.3h12.7v1.3H68.6z M68.6,63.2v-1.3h3.8v1.3H68.6z M68.6,65.7v-1.3h3.8v1.3H68.6z M68.6,68.2V67
		h3.8v1.3H68.6z M68.6,70.8v-1.3h3.8v1.3H68.6z M68.6,73.3V72h12.7v1.3H68.6z M69.8,58.1v-1.3h11.4v1.3H69.8z M69.8,75.8v-1.3H80
		v1.3H69.8z M76.2,68.2V67h5.1v1.3H76.2z M77.4,70.8v-1.3h3.8v1.3H77.4z"/>
	<linearGradient id="SVGID_5_" gradientUnits="userSpaceOnUse" x1="85.0295" y1="66.3309" x2="97.6977" y2="66.3309">
		<stop  offset="0.1558" style="stop-color:#000000"/>
		<stop  offset="0.8065" style="stop-color:#3E3E3F"/>
		<stop  offset="1" style="stop-color:#FFFFFF"/>
	</linearGradient>
	<path class="st2" d="M85,60.6v-1.3h12.7v1.3H85z M85,63.2v-1.3h3.8v1.3H85z M85,73.3V72h12.7v1.3H85z M85,75.8v-1.3h11.4v1.3H85z
		 M86.3,58.1v-1.3h11.4v1.3H86.3z M87.6,65.7v-1.3h5.1v1.3H87.6z M90.1,68.2V67h5.1v1.3H90.1z M93.9,70.8v-1.3h3.8v1.3H93.9z"/>
</g>
<g class="st3">
	<linearGradient id="SVGID_6_" gradientUnits="userSpaceOnUse" x1="48.291" y1="84.0647" x2="64.7596" y2="84.0647">
		<stop  offset="0.3668" style="stop-color:#000000"/>
		<stop  offset="1" style="stop-color:#FFFFFF"/>
	</linearGradient>
	<path class="st4" d="M54.6,92.3v1.3h-6.3v-1.3H54.6z M55.9,89.8V91h-7.6v-1.3H55.9z M54.6,77.1v1.3h-6.3v-1.3H54.6z M54.6,74.6v1.3
		h-6.3v-1.3H54.6z M57.2,87.2v1.3h-7.6v-1.3H57.2z M58.4,84.7V86h-8.9v-1.3H58.4z M53.4,82.2v1.3h-3.8v-1.3H53.4z M53.4,79.6v1.3
		h-3.8v-1.3H53.4z M63.5,82.2v1.3h-8.9v-1.3H63.5z M63.5,79.6v1.3h-7.6v-1.3H63.5z M64.8,77.1v1.3h-7.6v-1.3H64.8z M64.8,92.3v1.3
		h-6.3v-1.3H64.8z M64.8,89.8V91h-6.3v-1.3H64.8z M64.8,74.6v1.3h-6.3v-1.3H64.8z M63.5,87.2v1.3h-3.8v-1.3H63.5z M63.5,84.7V86
		h-3.8v-1.3H63.5z"/>
	<linearGradient id="SVGID_7_" gradientUnits="userSpaceOnUse" x1="68.5601" y1="84.0647" x2="81.2299" y2="84.0647">
		<stop  offset="0.3668" style="stop-color:#000000"/>
		<stop  offset="1" style="stop-color:#FFFFFF"/>
	</linearGradient>
	<path class="st5" d="M81.2,89.8V91H68.6v-1.3H81.2z M72.4,87.2v1.3h-3.8v-1.3H72.4z M72.4,84.7V86h-3.8v-1.3H72.4z M72.4,82.2v1.3
		h-3.8v-1.3H72.4z M72.4,79.6v1.3h-3.8v-1.3H72.4z M81.2,77.1v1.3H68.6v-1.3H81.2z M81.2,92.3v1.3H69.8v-1.3H81.2z M80,74.6v1.3
		H69.8v-1.3H80z M81.2,82.2v1.3h-5.1v-1.3H81.2z M81.2,79.6v1.3h-3.8v-1.3H81.2z"/>
	<linearGradient id="SVGID_8_" gradientUnits="userSpaceOnUse" x1="85.0303" y1="84.0647" x2="97.6985" y2="84.0647">
		<stop  offset="0.3668" style="stop-color:#000000"/>
		<stop  offset="1" style="stop-color:#FFFFFF"/>
	</linearGradient>
	<path class="st6" d="M97.7,89.8V91H85v-1.3H97.7z M88.8,87.2v1.3H85v-1.3H88.8z M97.7,77.1v1.3H85v-1.3H97.7z M96.4,74.6v1.3H85
		v-1.3H96.4z M97.7,92.3v1.3H86.3v-1.3H97.7z M92.6,84.7V86h-5.1v-1.3H92.6z M95.2,82.2v1.3h-5.1v-1.3H95.2z M97.7,79.6v1.3h-3.8
		v-1.3H97.7z"/>
</g>
</svg>
